<?xml version="1.0" encoding="utf-8"?>
<!-- Generator: Adobe Illustrator 16.0.3, SVG Export Plug-In . SVG Version: 6.00 Build 0)  -->
<!DOCTYPE svg PUBLIC "-//W3C//DTD SVG 1.1//EN" "http://www.w3.org/Graphics/SVG/1.1/DTD/svg11.dtd">
<svg version="1.1" id="Layer_1" xmlns="http://www.w3.org/2000/svg" xmlns:xlink="http://www.w3.org/1999/xlink" x="0px" y="0px"
	 width="16.012px" height="15.99px" viewBox="0 0 16.012 15.99" enable-background="new 0 0 16.012 15.99" xml:space="preserve">
<g>
	<g>
		<path fill-rule="evenodd" clip-rule="evenodd" fill="none" d="M16.012,8.178c0,2.604,0,5.208,0,7.812c-5.333,0-10.667,0-16,0
			c0-2.593,0-5.186,0-7.779c0.97,0,1.939,0,2.915,0c-0.672,2.319-1.343,4.63-2.014,6.946c0.025,0,0.04,0,0.055,0
			c1.008,0,2.016,0,3.023,0c0.009,0,0.02,0.003,0.027,0c0.012-0.005,0.027-0.011,0.033-0.021c0.042-0.075,0.083-0.151,0.122-0.228
			c0.046-0.093,0.088-0.187,0.133-0.28c0.344-0.722,0.688-1.444,1.032-2.166c0.382-0.8,0.763-1.601,1.145-2.4
			c0.294-0.617,0.589-1.233,0.883-1.85C7.38,8.182,7.388,8.147,7.388,8.115c0.001-2.402,0.001-4.804,0.001-7.207
			c0-0.02,0-0.04,0-0.065c-2.463,0-4.92,0-7.377,0c0-0.277,0-0.555,0-0.832c5.333,0,10.667,0,16,0c0,0.277,0,0.555,0,0.832
			c-2.458,0-4.917,0-7.374,0c0,2.461,0,4.912,0,7.368c0.972,0,1.94,0,2.914,0c-0.672,2.317-1.342,4.628-2.013,6.943
			c0.021,0.001,0.031,0.003,0.042,0.003c1.019,0,2.038,0,3.057,0.001c0.03,0,0.046-0.008,0.059-0.037
			c0.065-0.141,0.132-0.281,0.199-0.42c0.344-0.722,0.688-1.444,1.032-2.166c0.306-0.642,0.613-1.283,0.919-1.925
			c0.314-0.66,0.629-1.32,0.944-1.98C15.864,8.479,15.938,8.329,16.012,8.178z"/>
		<path fill-rule="evenodd" clip-rule="evenodd" fill="#ACB57D" d="M16.012,8.178c-0.074,0.151-0.148,0.301-0.221,0.453
			c-0.315,0.66-0.63,1.32-0.944,1.98c-0.306,0.642-0.613,1.284-0.919,1.925c-0.344,0.722-0.688,1.444-1.032,2.166
			c-0.067,0.14-0.134,0.279-0.199,0.42c-0.013,0.028-0.029,0.037-0.059,0.037c-1.019-0.001-2.038-0.001-3.057-0.001
			c-0.011,0-0.021-0.001-0.042-0.003c0.671-2.314,1.341-4.625,2.013-6.943c-0.974,0-1.942,0-2.914,0c0-2.456,0-4.907,0-7.368
			c2.458,0,4.916,0,7.374,0C16.012,3.288,16.012,5.733,16.012,8.178z"/>
		<path fill-rule="evenodd" clip-rule="evenodd" fill="#ACB57D" d="M0.011,0.843c2.457,0,4.914,0,7.377,0c0,0.026,0,0.046,0,0.065
			c0,2.402,0,4.804-0.001,7.207c0,0.032-0.008,0.066-0.021,0.095c-0.294,0.617-0.589,1.233-0.883,1.85
			c-0.382,0.8-0.763,1.601-1.145,2.4c-0.344,0.722-0.688,1.444-1.032,2.166c-0.045,0.093-0.087,0.188-0.133,0.28
			c-0.039,0.077-0.08,0.153-0.122,0.228c-0.006,0.01-0.021,0.017-0.033,0.021c-0.008,0.003-0.018,0-0.027,0
			c-1.008,0-2.016,0-3.023,0c-0.015,0-0.029,0-0.055,0c0.671-2.316,1.342-4.627,2.014-6.946c-0.976,0-1.945,0-2.915,0
			C0.011,5.755,0.011,3.299,0.011,0.843z"/>
	</g>
</g>
</svg>
