<svg width="435" height="156" viewBox="0 0 435 156" fill="none" xmlns="http://www.w3.org/2000/svg">
<path d="M15 12C14.2044 12 13.4413 12.3161 12.8787 12.8787C12.3161 13.4413 12 14.2044 12 15C12 15.7956 12.3161 16.5587 12.8787 17.1213C13.4413 17.6839 14.2044 18 15 18C15.7956 18 16.5587 17.6839 17.1213 17.1213C17.6839 16.5587 18 15.7956 18 15C18 14.2044 17.6839 13.4413 17.1213 12.8787C16.5587 12.3161 15.7956 12 15 12ZM15 10C16.3261 10 17.5979 10.5268 18.5355 11.4645C19.4732 12.4021 20 13.6739 20 15C20 16.3261 19.4732 17.5979 18.5355 18.5355C17.5979 19.4732 16.3261 20 15 20C13.6739 20 12.4021 19.4732 11.4645 18.5355C10.5268 17.5979 10 16.3261 10 15C10 13.6739 10.5268 12.4021 11.4645 11.4645C12.4021 10.5268 13.6739 10 15 10ZM21.5 9.75C21.5 10.0815 21.3683 10.3995 21.1339 10.6339C20.8995 10.8683 20.5815 11 20.25 11C19.9185 11 19.6005 10.8683 19.3661 10.6339C19.1317 10.3995 19 10.0815 19 9.75C19 9.41848 19.1317 9.10054 19.3661 8.86612C19.6005 8.6317 19.9185 8.5 20.25 8.5C20.5815 8.5 20.8995 8.6317 21.1339 8.86612C21.3683 9.10054 21.5 9.41848 21.5 9.75ZM15 7C12.526 7 12.122 7.007 10.971 7.058C10.187 7.095 9.661 7.2 9.173 7.39C8.739 7.558 8.426 7.759 8.093 8.093C7.78001 8.3954 7.53935 8.76458 7.389 9.173C7.199 9.663 7.094 10.188 7.058 10.971C7.006 12.075 7 12.461 7 15C7 17.474 7.007 17.878 7.058 19.029C7.095 19.812 7.2 20.339 7.389 20.826C7.559 21.261 7.759 21.574 8.091 21.906C8.428 22.242 8.741 22.443 9.171 22.609C9.665 22.8 10.191 22.906 10.971 22.942C12.075 22.994 12.461 23 15 23C17.474 23 17.878 22.993 19.029 22.942C19.811 22.905 20.338 22.8 20.826 22.611C21.259 22.442 21.574 22.241 21.906 21.909C22.243 21.572 22.444 21.259 22.61 20.829C22.8 20.336 22.906 19.809 22.942 19.029C22.994 17.925 23 17.539 23 15C23 12.526 22.993 12.122 22.942 10.971C22.905 10.189 22.8 9.661 22.61 9.173C22.4593 8.765 22.2191 8.39596 21.907 8.093C21.6047 7.77985 21.2355 7.53917 20.827 7.389C20.337 7.199 19.811 7.094 19.029 7.058C17.925 7.006 17.539 7 15 7ZM15 5C17.717 5 18.056 5.01 19.122 5.06C20.187 5.11 20.912 5.277 21.55 5.525C22.21 5.779 22.766 6.123 23.322 6.678C23.8305 7.1779 24.224 7.78259 24.475 8.45C24.722 9.087 24.89 9.813 24.94 10.878C24.987 11.944 25 12.283 25 15C25 17.717 24.99 18.056 24.94 19.122C24.89 20.187 24.722 20.912 24.475 21.55C24.2247 22.2178 23.8311 22.8226 23.322 23.322C22.822 23.8303 22.2173 24.2238 21.55 24.475C20.913 24.722 20.187 24.89 19.122 24.94C18.056 24.987 17.717 25 15 25C12.283 25 11.944 24.99 10.878 24.94C9.813 24.89 9.088 24.722 8.45 24.475C7.78233 24.2245 7.17753 23.8309 6.678 23.322C6.16941 22.8222 5.77593 22.2175 5.525 21.55C5.277 20.913 5.11 20.187 5.06 19.122C5.013 18.056 5 17.717 5 15C5 12.283 5.01 11.944 5.06 10.878C5.11 9.812 5.277 9.088 5.525 8.45C5.77524 7.78218 6.1688 7.17732 6.678 6.678C7.17767 6.16923 7.78243 5.77573 8.45 5.525C9.088 5.277 9.812 5.11 10.878 5.06C11.944 5.013 12.283 5 15 5Z" fill="#03030F"/>
<path d="M298.5 7L283 22.5" stroke="black" stroke-width="2.5" stroke-linecap="round"/>
<path d="M298.5 22.5L283 7" stroke="black" stroke-width="2.5" stroke-linecap="round"/>
<path d="M328.907 11.5478C329.382 11.0469 329.361 10.2557 328.86 9.78062C328.359 9.30551 327.568 9.32637 327.093 9.82722L328.907 11.5478ZM314.907 14.3189C314.432 13.818 313.641 13.7972 313.14 14.2723C312.639 14.7474 312.618 15.5386 313.093 16.0394L314.907 14.3189ZM318.87 20.3125L317.963 21.1728C318.199 21.4216 318.527 21.5625 318.87 21.5625C319.213 21.5625 319.54 21.4216 319.776 21.1728L318.87 20.3125ZM327.093 9.82722L317.963 19.4522L319.776 21.1728L328.907 11.5478L327.093 9.82722ZM319.776 19.4522L314.907 14.3189L313.093 16.0394L317.963 21.1728L319.776 19.4522Z" fill="black"/>
<path d="M46.0001 13.4995H50.5001L50.0001 15.4995H46.0001V24.4995H44.0001V15.4995H40.0001V13.4995H44.0001V11.6275C44.0001 9.84451 44.1861 9.19751 44.5341 8.54551C44.8751 7.90132 45.4019 7.37452 46.0461 7.03351C46.6981 6.68551 47.3451 6.49951 49.1281 6.49951C49.6501 6.49951 50.1081 6.54951 50.5001 6.64951V8.49951H49.1281C47.8041 8.49951 47.4011 8.57751 46.9901 8.79751C46.6861 8.95951 46.4601 9.18551 46.2981 9.48951C46.0781 9.90051 46.0001 10.3035 46.0001 11.6275V13.4995Z" fill="#03030F"/>
<path d="M75 5C69.48 5 65 9.48 65 15C65 20.52 69.48 25 75 25C80.51 25 85 20.52 85 15C85 9.48 80.51 5 75 5ZM81.605 9.61C82.8357 11.1093 83.5167 12.9844 83.535 14.924C83.254 14.87 80.434 14.295 77.592 14.653C77.527 14.512 77.472 14.36 77.408 14.208C77.231 13.791 77.043 13.3789 76.844 12.972C79.989 11.692 81.421 9.848 81.605 9.61ZM75 6.475C77.17 6.475 79.154 7.289 80.662 8.623C80.51 8.839 79.219 10.564 76.182 11.703C74.783 9.133 73.232 7.028 72.993 6.703C73.6509 6.54921 74.3244 6.47269 75 6.475ZM71.367 7.278C72.5114 8.86432 73.5687 10.5118 74.534 12.213C70.542 13.276 67.017 13.253 66.638 13.253C66.9128 11.9601 67.4826 10.7482 68.3029 9.71179C69.1232 8.67537 70.1718 7.84245 71.367 7.278ZM66.453 15.01V14.75C66.823 14.76 70.965 14.815 75.228 13.535C75.478 14.012 75.705 14.5 75.922 14.988C75.813 15.021 75.694 15.053 75.586 15.086C71.182 16.506 68.839 20.389 68.644 20.715C67.2338 19.1495 66.4536 17.117 66.454 15.01H66.453ZM75 23.547C73.1014 23.5502 71.2567 22.9164 69.761 21.747C69.913 21.432 71.649 18.091 76.464 16.41C76.486 16.4 76.497 16.4 76.518 16.388C77.3303 18.4834 77.9408 20.6516 78.341 22.863C77.2858 23.317 76.1487 23.5498 75 23.547ZM79.761 22.082C79.675 21.562 79.219 19.067 78.101 15.998C80.781 15.575 83.124 16.269 83.416 16.367C83.2336 17.5201 82.8148 18.623 82.1858 19.6065C81.5568 20.59 80.7313 21.4328 79.761 22.082Z" fill="#03030F"/>
<path d="M100.705 14.0561C101.211 14.0561 101.696 13.855 102.055 13.497C102.413 13.139 102.614 12.6534 102.614 12.1471C102.614 11.6407 102.413 11.1552 102.055 10.7971C101.696 10.4391 101.211 10.238 100.705 10.238H96.4091V14.0561H100.705ZM101.659 15.9652H96.4091V19.7834H101.659C102.165 19.7834 102.651 19.5823 103.009 19.2242C103.367 18.8662 103.568 18.3806 103.568 17.8743C103.568 17.368 103.367 16.8824 103.009 16.5244C102.651 16.1664 102.165 15.9652 101.659 15.9652ZM103.628 14.6021C104.344 15.0324 104.899 15.6852 105.208 16.4607C105.517 17.2362 105.563 18.0917 105.34 18.8961C105.116 19.7005 104.635 20.4095 103.971 20.9145C103.306 21.4196 102.494 21.6928 101.659 21.6925H94.5001V8.32889H100.705C101.431 8.32897 102.143 8.53653 102.756 8.92717C103.369 9.3178 103.858 9.87529 104.165 10.5341C104.472 11.1929 104.585 11.9257 104.49 12.6463C104.394 13.3669 104.096 14.0455 103.628 14.6021ZM108.341 9.28343H113.591V10.7152H108.341V9.28343ZM115.5 17.397H108.341V17.6357C108.341 18.2253 108.539 18.7979 108.904 19.2611C109.269 19.7243 109.779 20.0511 110.352 20.1889C110.926 20.3267 111.529 20.2675 112.064 20.0208C112.6 19.774 113.037 19.3542 113.305 18.8289H115.342C115.051 19.8868 114.386 20.8034 113.471 21.409C112.557 22.0145 111.453 22.268 110.366 22.1223C109.278 21.9767 108.281 21.4419 107.557 20.6169C106.834 19.792 106.434 18.7328 106.432 17.6357V16.2039C106.432 15.0014 106.91 13.8481 107.76 12.9978C108.61 12.1475 109.763 11.6698 110.966 11.6698C112.168 11.6698 113.322 12.1475 114.172 12.9978C115.022 13.8481 115.5 15.0014 115.5 16.2039V17.397ZM113.492 15.488C113.335 14.9386 113.004 14.4552 112.548 14.111C112.093 13.7668 111.537 13.5806 110.966 13.5806C110.395 13.5806 109.839 13.7668 109.383 14.111C108.928 14.4552 108.596 14.9386 108.44 15.488H113.492Z" fill="#03030F"/>
<path d="M135.028 12.8582C135.84 12.0284 136.898 11.4855 138.128 11.4855C139.42 11.4855 140.659 11.9987 141.572 12.9122C142.486 13.8257 142.999 15.0647 142.999 16.3566V22.999H141.228V16.3566C141.228 15.5345 140.901 14.746 140.32 14.1647C139.738 13.5834 138.95 13.2568 138.128 13.2568C137.306 13.2568 136.517 13.5834 135.936 14.1647C135.355 14.746 135.028 15.5345 135.028 16.3566V22.999H133.257V11.9283H135.028V12.8582ZM128.828 10.157C128.476 10.157 128.138 10.017 127.889 9.76787C127.64 9.51873 127.5 9.18082 127.5 8.82849C127.5 8.47615 127.64 8.13824 127.889 7.88911C128.138 7.63997 128.476 7.5 128.828 7.5C129.181 7.5 129.519 7.63997 129.768 7.88911C130.017 8.13824 130.157 8.47615 130.157 8.82849C130.157 9.18082 130.017 9.51873 129.768 9.76787C129.519 10.017 129.181 10.157 128.828 10.157ZM127.943 11.9283H129.714V22.999H127.943V11.9283Z" fill="#03030F"/>
<path d="M165 14.9998L162.171 12.1711L163.115 11.2284L165 13.1144L166.885 11.2284L167.829 12.1711L165 14.9998Z" fill="#03030F"/>
<path d="M195 21L195 9.5" stroke="#040415" stroke-linecap="round" stroke-linejoin="round"/>
<path d="M199.667 14L195 9.33333L190.333 14" stroke="#040415" stroke-linecap="round" stroke-linejoin="round"/>
<path d="M356.833 15.1667L345.333 15.1667" stroke="#040415" stroke-linecap="round" stroke-linejoin="round"/>
<path d="M349.833 10.5L345.167 15.1667L349.833 19.8333" stroke="#040415" stroke-linecap="round" stroke-linejoin="round"/>
<path d="M375.167 15.1667L386.667 15.1667" stroke="#040415" stroke-linecap="round" stroke-linejoin="round"/>
<path d="M382.167 19.8333L386.833 15.1667L382.167 10.5" stroke="#040415" stroke-linecap="round" stroke-linejoin="round"/>
<path d="M224.136 2.48359C224.522 1.82132 225.478 1.82132 225.864 2.48359L229.304 8.38978C229.445 8.63239 229.682 8.80441 229.957 8.86383L236.637 10.3104C237.386 10.4726 237.681 11.3825 237.171 11.954L232.617 17.0508C232.43 17.2602 232.339 17.5385 232.368 17.8179L233.056 24.6181C233.133 25.3806 232.359 25.943 231.658 25.6339L225.403 22.8777C225.146 22.7645 224.854 22.7645 224.597 22.8777L218.342 25.6339C217.641 25.943 216.867 25.3806 216.944 24.6181L217.632 17.8179C217.661 17.5385 217.57 17.2602 217.383 17.0508L212.829 11.954C212.319 11.3825 212.614 10.4726 213.363 10.3104L220.043 8.86383C220.318 8.80441 220.555 8.63239 220.696 8.38978L224.136 2.48359Z" fill="#EF4335"/>
<path d="M3.12478 33.1248C5.4029 30.8467 9.09623 30.8467 11.3744 33.1248C13.6525 35.4029 13.6525 39.0962 11.3744 41.3744C9.09623 43.6525 5.4029 43.6525 3.12478 41.3744C0.846654 39.0962 0.846654 35.4029 3.12478 33.1248ZM8.17599 32.6727C7.49924 32.5382 6.80107 32.5554 6.13176 32.7231C5.46246 32.8909 4.83868 33.2049 4.30534 33.6427C3.772 34.0805 3.34238 34.6311 3.04741 35.2548C2.75243 35.8786 2.59946 36.56 2.59949 37.25C2.59952 37.94 2.75256 38.6214 3.04759 39.2452C3.34261 39.8689 3.77229 40.4195 4.30567 40.8572C4.83904 41.2949 5.46285 41.6089 6.13217 41.7766C6.80149 41.9443 7.49966 41.9614 8.17641 41.8269C7.36407 41.3702 6.68795 40.7055 6.21755 39.9011C5.74715 39.0966 5.49943 38.1815 5.49983 37.2496C5.49946 36.3178 5.74716 35.4027 6.21748 34.5984C6.6878 33.794 7.36379 33.1294 8.17599 32.6727Z" fill="#03030F"/>
<path d="M17.1248 33.1248C19.4029 30.8467 23.0962 30.8467 25.3744 33.1248C27.6525 35.4029 27.6525 39.0962 25.3744 41.3744C23.0962 43.6525 19.4029 43.6525 17.1248 41.3744C14.8467 39.0962 14.8467 35.4029 17.1248 33.1248Z" fill="white"/>
<path d="M48.5333 113.386V109.333C48.5333 108.301 47.6989 107.467 46.6667 107.467H23.9475C23.1765 105.294 21.1008 103.733 18.6667 103.733C16.2325 103.733 14.1568 105.294 13.3859 107.467H9.33334C8.30107 107.467 7.46667 108.301 7.46667 109.333V132.053C5.29387 132.823 3.73334 134.899 3.73334 137.333C3.73334 139.767 5.29387 141.843 7.46667 142.614V146.667C7.46667 147.699 8.30107 148.533 9.33334 148.533H32.0525C32.8235 150.706 34.8992 152.267 37.3333 152.267C39.7675 152.267 41.8432 150.706 42.6141 148.533H46.6667C47.6989 148.533 48.5333 147.699 48.5333 146.667V123.947C50.7061 123.177 52.2667 121.101 52.2667 118.667C52.2667 116.233 50.7061 114.157 48.5333 113.386ZM11.2 111.2H14.9333C15.9656 111.2 16.8 110.366 16.8 109.333C16.8 108.303 17.6363 107.467 18.6667 107.467C19.6971 107.467 20.5333 108.303 20.5333 109.333C20.5333 110.366 21.3677 111.2 22.4 111.2H26.1333V114.933C26.1333 115.966 26.9677 116.8 28 116.8C29.0304 116.8 29.8667 117.636 29.8667 118.667C29.8667 119.697 29.0304 120.533 28 120.533C26.9677 120.533 26.1333 121.368 26.1333 122.4V126.133H23.9475C23.1765 123.961 21.1008 122.4 18.6667 122.4C16.2325 122.4 14.1568 123.961 13.3859 126.133H11.2V111.2ZM26.1333 144.8H11.2V141.067C11.2 140.034 10.3656 139.2 9.33334 139.2C8.30294 139.2 7.46667 138.364 7.46667 137.333C7.46667 136.303 8.30294 135.467 9.33334 135.467C10.3656 135.467 11.2 134.632 11.2 133.6V129.867H14.9333C15.9656 129.867 16.8 129.032 16.8 128C16.8 126.97 17.6363 126.133 18.6667 126.133C19.6971 126.133 20.5333 126.97 20.5333 128C20.5333 129.032 21.3677 129.867 22.4 129.867H26.1333V132.053C23.9605 132.823 22.4 134.899 22.4 137.333C22.4 139.767 23.9605 141.843 26.1333 142.614V144.8ZM44.8 144.8H41.0667C40.0344 144.8 39.2 145.634 39.2 146.667C39.2 147.697 38.3637 148.533 37.3333 148.533C36.3029 148.533 35.4667 147.697 35.4667 146.667C35.4667 145.634 34.6323 144.8 33.6 144.8H29.8667V141.067C29.8667 140.034 29.0323 139.2 28 139.2C26.9696 139.2 26.1333 138.364 26.1333 137.333C26.1333 136.303 26.9696 135.467 28 135.467C29.0323 135.467 29.8667 134.632 29.8667 133.6V129.867H32.0525C32.8235 132.039 34.8992 133.6 37.3333 133.6C39.7675 133.6 41.8432 132.039 42.6141 129.867H44.8V144.8ZM46.6667 120.533C45.6344 120.533 44.8 121.368 44.8 122.4V126.133H41.0667C40.0344 126.133 39.2 126.968 39.2 128C39.2 129.03 38.3637 129.867 37.3333 129.867C36.3029 129.867 35.4667 129.03 35.4667 128C35.4667 126.968 34.6323 126.133 33.6 126.133H29.8667V123.947C32.0395 123.177 33.6 121.101 33.6 118.667C33.6 116.233 32.0395 114.157 29.8667 113.386V111.2H44.8V114.933C44.8 115.966 45.6344 116.8 46.6667 116.8C47.6971 116.8 48.5333 117.636 48.5333 118.667C48.5333 119.697 47.6971 120.533 46.6667 120.533Z" fill="#03030F"/>
<path d="M84 105.6C75.7746 105.6 69.0666 112.308 69.0666 120.533C69.0666 120.585 69.0734 120.635 69.0739 120.686C64.6156 123.275 61.6 128.091 61.6 133.6C61.6 141.825 68.308 148.533 76.5333 148.533C79.2535 148.533 81.7994 147.786 84 146.506C86.2005 147.786 88.7465 148.533 91.4666 148.533C99.692 148.533 106.4 141.825 106.4 133.6C106.4 128.091 103.384 123.275 98.926 120.686C98.9265 120.635 98.9333 120.585 98.9333 120.533C98.9333 112.308 92.2253 105.6 84 105.6ZM84 109.333C89.7323 109.333 94.4196 113.593 95.1052 119.133C93.9382 118.839 92.7229 118.667 91.4666 118.667C88.7465 118.667 86.2005 119.414 84 120.694C81.7994 119.414 79.2535 118.667 76.5333 118.667C75.277 118.667 74.0618 118.839 72.8948 119.133C73.5804 113.593 78.2677 109.333 84 109.333ZM76.5333 122.4C78.03 122.4 79.4527 122.696 80.7552 123.224C79.0937 124.939 77.8419 127.045 77.1495 129.393C75.1115 127.818 73.6362 125.562 73.0661 122.951C74.1575 122.598 75.3211 122.4 76.5333 122.4ZM91.4666 122.4C92.6788 122.4 93.8424 122.598 94.9338 122.951C94.3638 125.562 92.8884 127.818 90.8505 129.393C90.158 127.045 88.9063 124.939 87.2448 123.224C88.5472 122.696 89.9699 122.4 91.4666 122.4ZM69.6828 124.741C70.7749 128.443 73.2647 131.545 76.5406 133.447C76.5401 133.498 76.5333 133.548 76.5333 133.6C76.5333 137.628 78.1479 141.285 80.7552 143.976C79.4527 144.504 78.03 144.8 76.5333 144.8C70.3256 144.8 65.3333 139.808 65.3333 133.6C65.3333 129.981 67.0373 126.785 69.6828 124.741ZM98.3172 124.741C100.963 126.785 102.667 129.981 102.667 133.6C102.667 139.808 97.6744 144.8 91.4666 144.8C89.9699 144.8 88.5472 144.504 87.2448 143.976C89.8521 141.285 91.4666 137.628 91.4666 133.6C91.4666 133.548 91.4599 133.498 91.4594 133.447C94.7353 131.545 97.2251 128.443 98.3172 124.741ZM84 125.251C85.7185 126.787 86.9562 128.842 87.4672 131.183C86.3758 131.535 85.2122 131.733 84 131.733C82.7878 131.733 81.6242 131.535 80.5328 131.183C81.0437 128.842 82.2814 126.787 84 125.251ZM80.3614 135C81.5284 135.294 82.7437 135.467 84 135.467C85.2562 135.467 86.4715 135.294 87.6385 135C87.2971 137.759 85.9633 140.194 84 141.949C82.0367 140.194 80.7029 137.759 80.3614 135Z" fill="#03030F"/>
<path d="M148.167 104.667C146.62 104.667 145.136 105.281 144.042 106.375C142.948 107.469 142.333 108.953 142.333 110.5C142.335 111.712 142.714 112.894 143.418 113.882L140.292 119.095C139.453 118.845 138.583 118.667 137.667 118.667C136.22 118.667 134.864 119.032 133.638 119.628L130.065 115.408C130.46 114.607 130.666 113.726 130.667 112.833C130.667 111.286 130.052 109.802 128.958 108.709C127.864 107.615 126.38 107 124.833 107C123.286 107 121.803 107.615 120.709 108.709C119.615 109.802 119 111.286 119 112.833C119 114.38 119.615 115.864 120.709 116.958C121.803 118.052 123.286 118.667 124.833 118.667C125.398 118.666 125.96 118.583 126.501 118.421L130.07 122.632C128.986 124.156 128.333 126.001 128.333 128C128.333 130.015 128.997 131.874 130.097 133.405L126.529 137.593C125.979 137.423 125.408 137.336 124.833 137.333C123.286 137.333 121.803 137.948 120.709 139.042C119.615 140.136 119 141.62 119 143.167C119 144.714 119.615 146.197 120.709 147.291C121.803 148.385 123.286 149 124.833 149C126.38 149 127.864 148.385 128.958 147.291C130.052 146.197 130.667 144.714 130.667 143.167C130.664 142.285 130.461 141.416 130.074 140.624L133.684 136.399C134.898 136.98 136.239 137.333 137.667 137.333C138.885 137.333 140.046 137.081 141.117 136.65L145.46 142.574C144.942 143.463 144.669 144.472 144.667 145.5C144.667 147.047 145.281 148.531 146.375 149.625C147.469 150.719 148.953 151.333 150.5 151.333C152.047 151.333 153.531 150.719 154.625 149.625C155.719 148.531 156.333 147.047 156.333 145.5C156.333 143.953 155.719 142.469 154.625 141.375C153.531 140.281 152.047 139.667 150.5 139.667C150.071 139.668 149.643 139.717 149.224 139.812L144.858 133.861C145.811 132.696 146.515 131.326 146.818 129.8L152.305 129.477C152.792 130.436 153.536 131.241 154.452 131.804C155.369 132.367 156.424 132.666 157.5 132.667C159.047 132.667 160.531 132.052 161.625 130.958C162.719 129.864 163.333 128.38 163.333 126.833C163.333 125.286 162.719 123.802 161.625 122.709C160.531 121.615 159.047 121 157.5 121C156.307 121.001 155.144 121.368 154.166 122.051C153.188 122.734 152.443 123.7 152.031 124.819L146.503 125.143C146.049 123.754 145.31 122.495 144.307 121.474L147.424 116.279C147.67 116.313 147.918 116.331 148.167 116.333C148.933 116.333 149.691 116.182 150.399 115.889C151.107 115.596 151.75 115.166 152.291 114.625C152.833 114.083 153.263 113.44 153.556 112.732C153.849 112.025 154 111.266 154 110.5C154 108.953 153.385 107.469 152.291 106.375C151.197 105.281 149.714 104.667 148.167 104.667ZM137.667 123.333C140.272 123.333 142.333 125.395 142.333 128C142.333 130.605 140.272 132.667 137.667 132.667C135.062 132.667 133 130.605 133 128C133 125.395 135.062 123.333 137.667 123.333Z" fill="#03030F"/>
<path d="M184.333 102.333V107H189V102.333H184.333ZM193.667 102.333V107H198.333V102.333H193.667ZM203 102.333V107H207.667V102.333H203ZM184.333 111.667C181.783 111.667 179.667 113.783 179.667 116.333V139.667C179.667 142.217 181.783 144.333 184.333 144.333H207.667C210.217 144.333 212.333 142.217 212.333 139.667V116.333C212.333 113.783 210.217 111.667 207.667 111.667H184.333ZM170.333 116.333V121H175V116.333H170.333ZM184.333 116.333H207.667V139.667H184.333V116.333ZM217 116.333V121H221.667V116.333H217ZM189 121V123.333V135H203V121H189ZM170.333 125.667V130.333H175V125.667H170.333ZM193.667 125.667H198.333V130.333H193.667V125.667ZM217 125.667V130.333H221.667V125.667H217ZM170.333 135V139.667H175V135H170.333ZM217 135V139.667H221.667V135H217ZM184.333 149V153.667H189V149H184.333ZM193.667 149V153.667H198.333V149H193.667ZM203 149V153.667H207.667V149H203Z" fill="#03030F"/>
<path d="M263.163 3.62109C261.395 3.62109 259.628 4.32152 258.304 5.71875L248.695 15.8555C245.102 19.647 245.102 25.742 248.695 29.5336C248.805 29.6503 248.939 29.7436 249.086 29.8078C249.088 29.8086 249.091 29.8094 249.093 29.8102C252.713 33.2405 258.36 33.2022 261.836 29.5336L268.595 22.4016C268.71 22.2884 268.8 22.1535 268.862 22.0047C268.923 21.8559 268.954 21.6963 268.952 21.5354C268.95 21.3745 268.916 21.2156 268.852 21.0681C268.787 20.9206 268.694 20.7876 268.577 20.6769C268.46 20.5662 268.323 20.4802 268.172 20.4239C268.021 20.3676 267.861 20.3421 267.7 20.3491C267.539 20.3561 267.381 20.3953 267.236 20.4644C267.091 20.5336 266.961 20.6312 266.854 20.7516L260.095 27.8836C257.393 30.7351 253.141 30.7351 250.438 27.8836C247.736 25.032 247.736 20.3571 250.438 17.5055L260.045 7.36875C261.803 5.5144 264.525 5.5144 266.282 7.36875C268.04 9.22291 268.04 12.2833 266.282 14.1375L257.538 23.3648C256.723 24.2238 255.534 24.2231 254.72 23.3648C253.907 22.5066 253.907 21.0614 254.72 20.2031L261.754 12.7805C261.869 12.6673 261.959 12.5324 262.02 12.3836C262.081 12.2348 262.112 12.0752 262.11 11.9143C262.109 11.7534 262.075 11.5945 262.01 11.447C261.946 11.2995 261.853 11.1665 261.736 11.0558C261.619 10.9452 261.481 10.8591 261.33 10.8028C261.18 10.7465 261.019 10.721 260.858 10.728C260.698 10.735 260.54 10.7742 260.395 10.8433C260.249 10.9125 260.119 11.0101 260.013 11.1305L252.977 18.5531C251.272 20.3516 251.272 23.2163 252.977 25.0148C253.091 25.1346 253.228 25.2295 253.38 25.2938C255.109 26.738 257.691 26.689 259.279 25.0148L268.024 15.7875C270.563 13.1082 270.6 8.91505 268.27 6.10781C268.214 5.96346 268.13 5.83134 268.024 5.71875C266.699 4.32152 264.931 3.62109 263.163 3.62109Z" fill="black"/>
<path d="M81.8411 70.3191C80.1854 70.3191 78.634 69.6272 77.2245 68.5007L77.5677 66.9105L77.5826 66.8516C77.8883 65.1585 78.8579 62.3165 81.8411 62.3165C84.0784 62.3165 85.8983 64.113 85.8983 66.3215C85.8907 68.5227 84.0711 70.3191 81.8411 70.3191ZM81.8411 58.2602C78.0299 58.2602 75.0767 60.7044 73.8761 64.724C72.0413 62.0074 70.654 58.7461 69.8412 56H65.7393V66.535C65.7393 68.6111 64.0239 70.3042 61.9207 70.3042C59.8175 70.3042 58.1024 68.6111 58.1024 66.535V56H54V66.535C53.9851 70.8493 57.5426 74.3903 61.913 74.3903C66.2835 74.3903 69.841 70.8493 69.841 66.535V64.7682C70.6389 66.4099 71.6159 68.0662 72.8018 69.5388L70.2883 81.2H74.4873L76.307 72.7411C77.903 73.7497 79.7378 74.383 81.8409 74.383C86.338 74.383 90 70.7461 90 66.3067C90 61.8748 86.338 58.2602 81.8409 58.2602H81.8411Z" fill="#03030F"/>
<path d="M33.0923 75.5126C31.1711 77.1825 28.6866 78.0888 26.1231 78.0549C20.2154 78.0549 15.8769 73.7875 15.8769 67.9313C15.8769 62.075 20.0769 57.9893 26.1231 57.9893C28.6923 57.9551 31.1863 58.8427 33.1385 60.4861L34.4308 61.5757L40.1538 55.9464L38.7231 54.6299C35.2614 51.5879 30.7646 49.9353 26.1231 49.9994C15.5077 49.9994 7.79999 57.5353 7.79999 67.8859C7.79999 78.2365 15.6923 85.9994 26.1231 85.9994C30.8086 86.0611 35.3439 84.3741 38.8154 81.2781L40.2 80.0069L34.3846 74.3777L33.0923 75.5126Z" fill="#03030F"/>
<path opacity="0.3" d="M25.8461 74.0151C29.2363 74.0151 31.9846 71.3119 31.9846 67.9773C31.9846 64.6427 29.2363 61.9394 25.8461 61.9394C22.4559 61.9394 19.7076 64.6427 19.7076 67.9773C19.7076 71.3119 22.4559 74.0151 25.8461 74.0151Z" fill="#03030F"/>
<path fill-rule="evenodd" clip-rule="evenodd" d="M139.2 67.9734C139.2 69.2718 139.068 70.5685 138.808 71.8324C138.555 73.0663 138.18 74.2778 137.689 75.4358C137.209 76.5734 136.613 77.6696 135.918 78.6919C135.232 79.7077 134.443 80.6608 133.576 81.5295C132.707 82.3946 131.75 83.1818 130.735 83.87C129.709 84.5609 128.611 85.1554 127.473 85.6376C126.314 86.1263 125.099 86.5007 123.866 86.7535C122.601 87.0138 121.299 87.1467 119.999 87.1467C118.698 87.1467 117.397 87.0138 116.133 86.7535C114.898 86.5007 113.684 86.1263 112.525 85.6376C111.387 85.1554 110.288 84.5609 109.262 83.87C108.247 83.1819 107.291 82.3946 106.423 81.5295C105.555 80.6608 104.766 79.7077 104.08 78.6919C103.388 77.6696 102.791 76.5733 102.309 75.4358C101.818 74.2778 101.442 73.0663 101.188 71.8324C100.931 70.5685 100.8 69.2718 100.8 67.9734C100.8 66.6739 100.931 65.3745 101.188 64.1133C101.442 62.8794 101.818 61.6661 102.31 60.51C102.791 59.3716 103.388 58.2744 104.08 57.252C104.766 56.2353 105.555 55.2841 106.424 54.4144C107.291 53.5493 108.247 52.7639 109.262 52.0767C110.288 51.3829 111.387 50.7885 112.525 50.3054C113.684 49.8157 114.898 49.4403 116.133 49.1895C117.397 48.9311 118.698 48.8 119.999 48.8C121.3 48.8 122.601 48.9311 123.867 49.1895C125.099 49.4404 126.314 49.8158 127.473 50.3054C128.611 50.7885 129.709 51.3829 130.735 52.0767C131.75 52.7639 132.707 53.5493 133.576 54.4144C134.443 55.2841 135.232 56.2353 135.918 57.252C136.613 58.2744 137.209 59.3716 137.689 60.51C138.18 61.6661 138.555 62.8794 138.808 64.1133C139.068 65.3745 139.2 66.6739 139.2 67.9734ZM113.003 53.1636C108.431 55.3197 105.018 59.527 103.954 64.5974C104.386 64.6012 111.219 64.6873 119.092 62.5986C116.254 57.5637 113.222 53.4549 113.003 53.1636ZM120.45 65.1199C112.007 67.6438 103.906 67.4622 103.615 67.451C103.611 67.627 103.602 67.7973 103.602 67.9734C103.602 72.1796 105.191 76.0143 107.803 78.9138C107.798 78.9053 112.285 70.9561 121.134 68.0988C121.347 68.0277 121.565 67.964 121.78 67.9022C121.369 66.9717 120.92 66.0392 120.45 65.1199ZM130.828 55.6848C127.941 53.143 124.151 51.6012 119.999 51.6012C118.667 51.6012 117.374 51.7622 116.135 52.0599C116.381 52.3895 119.461 56.4694 122.265 61.6109C128.452 59.2948 130.787 55.7447 130.828 55.6848ZM122.898 70.6153C122.861 70.6274 122.825 70.6378 122.789 70.6509C113.115 74.0187 109.956 80.8057 109.921 80.8798C112.705 83.0414 116.196 84.3456 119.999 84.3456C122.27 84.3456 124.433 83.8839 126.401 83.048C126.158 81.6175 125.205 76.6032 122.898 70.6153ZM129.162 81.552C132.844 79.0711 135.458 75.1316 136.188 70.5684C135.85 70.4598 131.263 69.0096 125.97 69.8569C128.121 75.7588 128.995 80.5652 129.162 81.552ZM123.527 64.0507C123.908 64.8315 124.276 65.6262 124.617 66.4249C124.738 66.7114 124.856 66.9923 124.971 67.2731C130.604 66.5653 136.153 67.7561 136.39 67.8048C136.353 63.9233 134.962 60.3611 132.662 57.5722C132.631 57.6161 130.001 61.4105 123.527 64.0507Z" fill="#03030F"/>
<path d="M154.761 57.0439H149.429L156.293 78.6617H160.921L164.659 64.5716L168.361 78.583H173.029L179.842 57.0439H174.59L170.762 71.8755L167.112 57.0439H162.252L158.625 71.8771L154.761 57.0439Z" fill="black"/>
<ellipse cx="182.98" cy="75.07" rx="3.59176" ry="3.59176" fill="black"/>
<path fill-rule="evenodd" clip-rule="evenodd" d="M220.448 61.3374H228.922V58.9095H220.448V61.3374V61.3374ZM222.455 66.6348C221.915 67.1842 221.575 67.9285 221.436 68.8677H228.026C227.957 67.8654 227.614 67.1081 227.009 66.5865C226.395 66.0687 225.641 65.8107 224.738 65.8107C223.759 65.8107 222.995 66.0854 222.455 66.6348V66.6348V66.6348ZM228.175 63.3754C229.197 63.8246 230.038 64.5374 230.7 65.51C231.304 66.3675 231.692 67.3624 231.868 68.4928C231.972 69.1536 232.013 70.1114 231.996 71.3568H221.342C221.406 72.8028 221.91 73.8181 222.873 74.3991C223.456 74.761 224.158 74.9429 224.982 74.9429C225.85 74.9429 226.559 74.722 227.103 74.2821C227.402 74.0427 227.665 73.7123 227.891 73.2891H231.795C231.692 74.1429 231.217 75.0135 230.378 75.897C229.069 77.2984 227.234 78 224.877 78C222.93 78 221.212 77.4097 219.727 76.2255C218.235 75.0432 217.494 73.1165 217.494 70.451C217.494 67.9508 218.166 66.0334 219.507 64.6988C220.852 63.368 222.593 62.6979 224.736 62.6979C226.009 62.6979 227.155 62.9244 228.175 63.3754V63.3754V63.3754ZM203.942 68.9197V74.1225H208.743C209.601 74.1225 210.271 74.0074 210.747 73.7791C211.614 73.3522 212.047 72.5429 212.047 71.3439C212.047 70.3267 211.629 69.6306 210.788 69.2501C210.318 69.0385 209.658 68.9271 208.811 68.9197H203.942V68.9197ZM203.942 61.3875V65.6919H208.751C209.607 65.6919 210.305 65.5304 210.843 65.2074C211.377 64.8845 211.646 64.3128 211.646 63.4961C211.646 62.5847 211.293 61.9852 210.585 61.6919C209.972 61.4896 209.193 61.3875 208.246 61.3875H203.942V61.3875ZM214.681 60.0789C215.285 60.9086 215.588 61.8998 215.588 63.0561C215.588 64.2459 215.285 65.2056 214.674 65.9295C214.331 66.3341 213.829 66.7053 213.165 67.0394C214.173 67.4032 214.933 67.9768 215.451 68.7619C215.962 69.5452 216.22 70.4993 216.22 71.6204C216.22 72.7768 215.927 73.8144 215.338 74.7313C214.965 75.3383 214.499 75.8506 213.938 76.2664C213.308 76.7434 212.564 77.0682 211.705 77.2464C210.845 77.4227 209.915 77.5081 208.911 77.5081H200V58H209.556C211.968 58.0353 213.675 58.7276 214.681 60.0789V60.0789V60.0789Z" fill="#03030F"/>
</svg>
