<?xml version="1.0" encoding="utf-8"?>
<!-- Generator: Adobe Illustrator 25.1.0, SVG Export Plug-In . SVG Version: 6.00 Build 0)  -->
<svg version="1.1" id="Layer_1" xmlns="http://www.w3.org/2000/svg" xmlns:xlink="http://www.w3.org/1999/xlink" x="0px" y="0px"
	 viewBox="0 0 40 40" style="enable-background:new 0 0 40 40;" xml:space="preserve">
<g>
	<g>
		<g>
			<g>
				<path d="M34.6,39.9c-1.4,0-2.8-0.6-3.8-1.6c-1-1-1.6-2.4-1.6-3.8c0-1.4,0.6-2.8,1.6-3.8c1-1,2.4-1.6,3.8-1.6
					c1.4,0,2.8,0.6,3.8,1.6c2.1,2.1,2.1,5.5,0,7.6C37.4,39.3,36.1,39.9,34.6,39.9z"/>
			</g>
			<g>
				<path d="M5.4,11.2c-1.4,0-2.8-0.6-3.8-1.6C0.6,8.6,0,7.2,0,5.8C0,4.3,0.6,3,1.6,2c1-1,2.4-1.6,3.8-1.6C6.8,0.4,8.2,1,9.2,2
					c1,1,1.6,2.4,1.6,3.8c0,1.4-0.6,2.8-1.6,3.8C8.2,10.6,6.8,11.2,5.4,11.2z"/>
			</g>
			<path d="M34.4,11c-1.4,0-2.8-0.6-3.8-1.6c-2.1-2.1-2.1-5.5,0-7.6c1-1,2.4-1.6,3.8-1.6c1.4,0,2.8,0.6,3.8,1.6
				c2.1,2.1,2.1,5.5,0,7.6C37.2,10.4,35.8,11,34.4,11z"/>
			<g>
				<path d="M5.5,39.9c-1.4,0-2.8-0.6-3.8-1.6c-1-1-1.6-2.4-1.6-3.8c0-1.4,0.6-2.8,1.6-3.8c0.2-0.2,0.5-0.4,0.8-0.6
					c0.1-0.1,0.2-0.1,0.3-0.2c0.2-0.1,0.4-0.2,0.6-0.3c0.1,0,0.2-0.1,0.3-0.1c0.2-0.1,0.4-0.1,0.7-0.2c0,0,0.1,0,0.1,0
					c0,0,0.1,0,0.1,0l1.2-0.1c0.2,0,0.3,0,0.5,0l0.1,0c0,0,0.1,0,0.2,0l0,0l0.1,0h0c0.1,0,0.2,0,0.3,0c2.1,0,4.1-0.9,5.6-2.4
					c1.5-1.5,2.3-3.6,2.2-5.6l0-0.1l0-0.1c0-0.1,0-0.1,0-0.2c0-0.1,0-0.1,0-0.2l0-0.1c0-0.1,0-0.2,0-0.3l0.1-1.2c0,0,0-0.1,0-0.1
					l0-0.1c0.1-0.2,0.1-0.5,0.2-0.7c0-0.1,0.1-0.2,0.1-0.3c0.1-0.2,0.2-0.4,0.3-0.6c0.1-0.1,0.1-0.2,0.2-0.3
					c0.2-0.3,0.4-0.6,0.6-0.8c1-1,2.4-1.6,3.8-1.6c1.4,0,2.8,0.6,3.8,1.6c2.1,2.1,2.1,5.5,0,7.6c-0.2,0.2-0.5,0.4-0.8,0.6
					c-0.1,0.1-0.2,0.1-0.3,0.2c-0.2,0.1-0.4,0.2-0.6,0.3c-0.1,0-0.2,0.1-0.3,0.1c-0.2,0.1-0.4,0.1-0.7,0.2l-0.1,0c0,0-0.1,0-0.1,0
					l-1.2,0.1c-0.1,0-0.3,0-0.4,0l-0.1,0c0,0-0.1,0-0.1,0l0,0l-0.1,0h0c-0.1,0-0.2,0-0.3,0c-2.1,0-4.1,0.9-5.6,2.4
					c-1.5,1.5-2.3,3.6-2.2,5.6l0,0.1l0,0.1c0,0.1,0,0.1,0,0.2c0,0.1,0,0.1,0,0.2c0,0,0,0.1,0,0.2c0,0.1,0,0.2,0,0.2v0l-0.1,1.2
					c0,0,0,0.2-0.1,0.2c-0.1,0.2-0.1,0.5-0.2,0.7c0,0.1-0.1,0.2-0.1,0.3c-0.1,0.2-0.2,0.4-0.3,0.6c-0.1,0.1-0.1,0.2-0.2,0.3
					c-0.2,0.3-0.4,0.5-0.6,0.7C8.3,39.3,7,39.9,5.5,39.9L5.5,39.9z"/>
			</g>
			<path d="M20.1,39.9c-1.4,0-2.8-0.6-3.8-1.6c-1-1-1.6-2.4-1.6-3.8c0-1.4,0.6-2.8,1.6-3.8c0.2-0.2,0.4-0.4,0.8-0.6
				c0.1-0.1,0.2-0.1,0.3-0.2c0.2-0.1,0.4-0.2,0.6-0.3c0.1,0,0.2-0.1,0.3-0.1c0.2-0.1,0.4-0.1,0.6-0.2c0,0,0.2-0.1,0.2-0.1l1.2-0.1
				c0.1,0,0.3,0,0.5,0l0.1,0c0.1,0,0.1,0,0.2,0c0,0,0,0,0.1,0l0,0l0.1,0c0.1,0,0.2,0,0.3,0c2.1,0,4.1-0.9,5.6-2.4
				c1.5-1.5,2.3-3.6,2.2-5.6l0-0.3l0,0c0,0,0,0,0,0c0-0.1,0-0.1,0-0.2l0-0.2c0-0.1,0-0.2,0-0.3l0.1-1.2c0,0,0-0.2,0.1-0.2
				c0.1-0.3,0.1-0.5,0.2-0.7c0-0.1,0.1-0.2,0.1-0.3c0.1-0.2,0.2-0.4,0.3-0.6l0,0c0-0.1,0.1-0.1,0.1-0.2c0.2-0.3,0.4-0.6,0.6-0.8
				c1-1,2.4-1.6,3.8-1.6c1.4,0,2.8,0.6,3.8,1.6c2.1,2.1,2.1,5.5,0,7.6c-0.2,0.2-0.4,0.4-0.8,0.6c-0.1,0-0.1,0.1-0.2,0.1l-0.1,0.1
				c-0.2,0.1-0.4,0.2-0.6,0.3c-0.1,0-0.2,0.1-0.3,0.1c-0.2,0.1-0.4,0.1-0.7,0.2c-0.1,0-0.1,0-0.1,0c0,0-0.1,0-0.1,0l-1.2,0.1
				c-0.2,0-0.4,0-0.5-0.1c-0.1,0-0.1,0-0.2,0c0,0,0,0-0.1,0l-0.1,0c-0.1,0-0.2,0-0.3,0c-2.1,0-4.1,0.9-5.6,2.4
				c-1.5,1.5-2.3,3.6-2.2,5.6l0,0.1l0,0.1c0,0.1,0,0.1,0,0.2c0,0.1,0,0.1,0,0.2c0,0.1,0,0.1,0,0.2c0,0.1,0,0.2,0,0.3l-0.1,1.2
				c0,0-0.1,0.2-0.1,0.2c-0.1,0.3-0.1,0.5-0.2,0.7c0,0.1-0.1,0.2-0.1,0.3l0,0c-0.1,0.2-0.2,0.4-0.3,0.6c-0.1,0.1-0.1,0.2-0.2,0.3
				c-0.2,0.3-0.4,0.5-0.6,0.8C22.8,39.3,21.5,39.9,20.1,39.9L20.1,39.9z"/>
			<path d="M5.5,25.3c-1.4,0-2.8-0.6-3.8-1.6c-1-1-1.6-2.4-1.6-3.8c0-1.4,0.6-2.8,1.6-3.8c0.2-0.2,0.5-0.4,0.8-0.6
				c0.1-0.1,0.2-0.1,0.3-0.2c0.2-0.1,0.4-0.2,0.6-0.3c0.1,0,0.2-0.1,0.3-0.1c0.2-0.1,0.4-0.1,0.6-0.2l0.1,0c0,0,0,0,0.1,0l1.2-0.1
				c0.2,0,0.3,0,0.5,0.1l0,0c0.1,0,0.1,0,0.2,0c0,0,0,0,0.1,0l0.1,0l0,0c0.1,0,0.2,0,0.3,0c2.1,0,4.1-0.9,5.6-2.4
				c1.5-1.5,2.3-3.6,2.2-5.6l0-0.1l0-0.1c0-0.1,0-0.1,0-0.2c0-0.1,0-0.1,0-0.2l0-0.2c0-0.1,0-0.2,0-0.3l0.1-1.1l0,0v0
				c0,0,0.1-0.2,0.1-0.2c0.1-0.3,0.1-0.5,0.2-0.7c0-0.1,0.1-0.2,0.1-0.3c0.1-0.2,0.2-0.4,0.3-0.6l0,0c0-0.1,0.1-0.2,0.1-0.2
				c0.2-0.3,0.4-0.6,0.6-0.8c1-1,2.4-1.6,3.8-1.6c1.4,0,2.8,0.6,3.8,1.6c2.1,2.1,2.1,5.5,0,7.6c-0.2,0.2-0.5,0.4-0.8,0.6
				c-0.1,0.1-0.2,0.1-0.2,0.1l0,0c-0.2,0.1-0.4,0.2-0.6,0.3c-0.1,0.1-0.2,0.1-0.3,0.1c-0.2,0.1-0.4,0.1-0.7,0.2c-0.1,0-0.1,0-0.1,0
				c0,0-0.1,0-0.1,0l-1.2,0.1c-0.2,0-0.3,0-0.5,0l-0.1,0c-0.1,0-0.1,0-0.2,0c0,0,0,0-0.1,0l0,0l-0.1,0c-0.1,0-0.2,0-0.3,0
				c-2.1,0-4.1,0.9-5.6,2.4c-1.5,1.5-2.3,3.6-2.2,5.6l0,0.1l0,0.1c0,0.1,0,0.1,0,0.2c0,0.1,0,0.1,0,0.2c0,0.1,0,0.1,0,0.2
				c0,0.1,0,0.2,0,0.3L10.8,21c0,0,0,0.1,0,0.1l0,0.1c-0.1,0.3-0.1,0.5-0.2,0.7c0,0.1-0.1,0.2-0.1,0.3c-0.1,0.2-0.2,0.4-0.3,0.6
				c-0.1,0.1-0.1,0.2-0.2,0.3c-0.2,0.3-0.4,0.6-0.6,0.8C8.3,24.8,7,25.3,5.5,25.3L5.5,25.3z"/>
		</g>
	</g>
</g>
</svg>
