<svg width="75" height="40" viewBox="0 0 75 40" fill="none" xmlns="http://www.w3.org/2000/svg">
<path d="M10.776 28H14.352L10.632 21.664C12.552 20.776 13.872 18.88 13.872 16.768C13.872 13.696 11.376 11.2 8.28 11.2H1.56V28H4.872V22.168H7.392L10.776 28ZM4.872 14.296H8.28C9.528 14.296 10.56 15.376 10.56 16.768C10.56 18.16 9.528 19.264 8.28 19.264H4.872V14.296ZM21.2608 28.336C24.7888 28.336 27.6208 25.576 27.6208 22C27.6208 18.424 24.7888 15.664 21.2608 15.664C17.7328 15.664 14.9248 18.424 14.9248 22C14.9248 25.576 17.7328 28.336 21.2608 28.336ZM21.2608 25.312C19.4368 25.312 18.0208 23.944 18.0208 22C18.0208 20.056 19.4368 18.688 21.2608 18.688C23.1088 18.688 24.5248 20.056 24.5248 22C24.5248 23.944 23.1088 25.312 21.2608 25.312ZM36.4708 15.664C34.8628 15.664 33.6148 16.264 32.8948 17.344V16H29.7988V28H32.8948V21.52C32.8948 19.432 34.0228 18.544 35.5348 18.544C36.9268 18.544 37.9108 19.384 37.9108 21.016V28H41.0068V20.632C41.0068 17.44 39.0148 15.664 36.4708 15.664ZM52.7704 16V17.416C51.9064 16.336 50.6104 15.664 48.8584 15.664C45.6664 15.664 43.0264 18.424 43.0264 22C43.0264 25.576 45.6664 28.336 48.8584 28.336C50.6104 28.336 51.9064 27.664 52.7704 26.584V28H55.8664V16H52.7704ZM49.4344 25.384C47.5384 25.384 46.1224 24.016 46.1224 22C46.1224 19.984 47.5384 18.616 49.4344 18.616C51.3544 18.616 52.7704 19.984 52.7704 22C52.7704 24.016 51.3544 25.384 49.4344 25.384ZM61.4361 19.408C61.4361 18.76 62.0601 18.424 62.8281 18.424C63.7161 18.424 64.3881 18.88 64.7481 19.648L67.3881 18.208C66.4521 16.552 64.7721 15.664 62.8281 15.664C60.3561 15.664 58.2681 17.032 58.2681 19.48C58.2681 23.704 64.4601 22.744 64.4601 24.496C64.4601 25.192 63.7881 25.528 62.8041 25.528C61.6041 25.528 60.7881 24.952 60.4521 23.968L57.7641 25.48C58.6281 27.328 60.4041 28.336 62.8041 28.336C65.3721 28.336 67.6281 27.088 67.6281 24.496C67.6281 20.08 61.4361 21.184 61.4361 19.408ZM71.2785 28.312C72.4065 28.312 73.3185 27.4 73.3185 26.272C73.3185 25.144 72.4065 24.232 71.2785 24.232C70.1505 24.232 69.2385 25.144 69.2385 26.272C69.2385 27.4 70.1505 28.312 71.2785 28.312Z" fill="white"/>
</svg>
